<svg width="200" height="200" viewBox="0 0 200 200" fill="none" xmlns="http://www.w3.org/2000/svg">
  <defs>
    <linearGradient id="grad1" x1="0%" y1="0%" x2="100%" y2="100%">
      <stop offset="0%" style="stop-color:#6366f1;stop-opacity:1" />
      <stop offset="100%" style="stop-color:#8b5cf6;stop-opacity:1" />
    </linearGradient>
  </defs>
  
  <!-- Background circle -->
  <circle cx="100" cy="100" r="90" fill="url(#grad1)" opacity="0.1"/>
  
  <!-- Gear large -->
  <path d="M100 40 L110 45 L115 40 L120 50 L130 50 L130 60 L140 65 L135 75 L140 85 L130 90 L130 100 L120 100 L115 110 L110 105 L100 110 L90 105 L85 110 L80 100 L70 100 L70 90 L60 85 L65 75 L60 65 L70 60 L70 50 L80 50 L85 40 L90 45 Z" 
        fill="url(#grad1)" opacity="0.8"/>
  
  <!-- Gear small -->
  <circle cx="140" cy="140" r="25" fill="none" stroke="url(#grad1)" stroke-width="8"/>
  <circle cx="140" cy="140" r="10" fill="url(#grad1)"/>
  
  <!-- Lightning bolt (automation symbol) -->
  <path d="M100 60 L95 80 L105 80 L95 105 L110 85 L100 85 Z" fill="#fff" opacity="0.9"/>
  
  <!-- Connection lines -->
  <line x1="120" y1="90" x2="140" y2="120" stroke="url(#grad1)" stroke-width="3" opacity="0.6"/>
  <circle cx="120" cy="90" r="5" fill="url(#grad1)"/>
  <circle cx="140" cy="120" r="5" fill="url(#grad1)"/>
</svg>

