<svg width="200" height="200" viewBox="0 0 200 200" fill="none" xmlns="http://www.w3.org/2000/svg">
  <defs>
    <linearGradient id="grad3" x1="0%" y1="0%" x2="100%" y2="100%">
      <stop offset="0%" style="stop-color:#6366f1;stop-opacity:1" />
      <stop offset="100%" style="stop-color:#8b5cf6;stop-opacity:1" />
    </linearGradient>
  </defs>
  
  <!-- Background -->
  <circle cx="100" cy="100" r="90" fill="url(#grad3)" opacity="0.1"/>
  
  <!-- Chat bubble 1 -->
  <rect x="35" y="50" width="80" height="50" rx="12" fill="url(#grad3)" opacity="0.7"/>
  <path d="M 50 100 L 45 110 L 60 100 Z" fill="url(#grad3)" opacity="0.7"/>
  
  <!-- Text lines in bubble 1 -->
  <line x1="50" y1="65" x2="100" y2="65" stroke="#fff" stroke-width="3" stroke-linecap="round" opacity="0.9"/>
  <line x1="50" y1="75" x2="95" y2="75" stroke="#fff" stroke-width="3" stroke-linecap="round" opacity="0.9"/>
  <line x1="50" y1="85" x2="85" y2="85" stroke="#fff" stroke-width="3" stroke-linecap="round" opacity="0.9"/>
  
  <!-- Chat bubble 2 -->
  <rect x="85" y="110" width="80" height="50" rx="12" fill="url(#grad3)"/>
  <path d="M 150 160 L 155 170 L 140 160 Z" fill="url(#grad3)"/>
  
  <!-- Text lines in bubble 2 -->
  <line x1="100" y1="125" x2="150" y2="125" stroke="#fff" stroke-width="3" stroke-linecap="round" opacity="0.9"/>
  <line x1="100" y1="135" x2="145" y2="135" stroke="#fff" stroke-width="3" stroke-linecap="round" opacity="0.9"/>
  <line x1="100" y1="145" x2="135" y2="145" stroke="#fff" stroke-width="3" stroke-linecap="round" opacity="0.9"/>
  
  <!-- AI brain icon -->
  <circle cx="140" cy="70" r="20" fill="url(#grad3)" opacity="0.3"/>
  <path d="M 130 70 Q 135 60 140 70 Q 145 60 150 70" stroke="url(#grad3)" stroke-width="2" fill="none"/>
  <circle cx="135" cy="68" r="2" fill="url(#grad3)"/>
  <circle cx="145" cy="68" r="2" fill="url(#grad3)"/>
</svg>

