<svg width="200" height="200" viewBox="0 0 200 200" fill="none" xmlns="http://www.w3.org/2000/svg">
  <defs>
    <linearGradient id="grad5" x1="0%" y1="0%" x2="100%" y2="100%">
      <stop offset="0%" style="stop-color:#6366f1;stop-opacity:1" />
      <stop offset="100%" style="stop-color:#8b5cf6;stop-opacity:1" />
    </linearGradient>
  </defs>
  
  <!-- Background -->
  <circle cx="100" cy="100" r="90" fill="url(#grad5)" opacity="0.1"/>
  
  <!-- Central node (user) -->
  <circle cx="100" cy="100" r="25" fill="url(#grad5)"/>
  <circle cx="100" cy="85" r="8" fill="#fff" opacity="0.9"/>
  <path d="M 85 105 Q 100 110 115 105" stroke="#fff" stroke-width="3" fill="none" opacity="0.9" stroke-linecap="round"/>
  
  <!-- Recommendation items (stars) -->
  <!-- Star 1 -->
  <g transform="translate(50, 50)">
    <path d="M 0 -10 L 3 -3 L 10 -3 L 4 2 L 6 10 L 0 5 L -6 10 L -4 2 L -10 -3 L -3 -3 Z" 
          fill="url(#grad5)" opacity="0.7"/>
  </g>
  
  <!-- Star 2 -->
  <g transform="translate(150, 50)">
    <path d="M 0 -10 L 3 -3 L 10 -3 L 4 2 L 6 10 L 0 5 L -6 10 L -4 2 L -10 -3 L -3 -3 Z" 
          fill="url(#grad5)" opacity="0.7"/>
  </g>
  
  <!-- Star 3 -->
  <g transform="translate(50, 150)">
    <path d="M 0 -10 L 3 -3 L 10 -3 L 4 2 L 6 10 L 0 5 L -6 10 L -4 2 L -10 -3 L -3 -3 Z" 
          fill="url(#grad5)" opacity="0.7"/>
  </g>
  
  <!-- Star 4 -->
  <g transform="translate(150, 150)">
    <path d="M 0 -10 L 3 -3 L 10 -3 L 4 2 L 6 10 L 0 5 L -6 10 L -4 2 L -10 -3 L -3 -3 Z" 
          fill="url(#grad5)" opacity="0.7"/>
  </g>
  
  <!-- Connection lines -->
  <line x1="100" y1="75" x2="50" y2="50" stroke="url(#grad5)" stroke-width="2" opacity="0.5"/>
  <line x1="100" y1="75" x2="150" y2="50" stroke="url(#grad5)" stroke-width="2" opacity="0.5"/>
  <line x1="100" y1="125" x2="50" y2="150" stroke="url(#grad5)" stroke-width="2" opacity="0.5"/>
  <line x1="100" y1="125" x2="150" y2="150" stroke="url(#grad5)" stroke-width="2" opacity="0.5"/>
  
  <!-- Connection dots -->
  <circle cx="75" cy="63" r="4" fill="url(#grad5)" opacity="0.6"/>
  <circle cx="125" cy="63" r="4" fill="url(#grad5)" opacity="0.6"/>
  <circle cx="75" cy="137" r="4" fill="url(#grad5)" opacity="0.6"/>
  <circle cx="125" cy="137" r="4" fill="url(#grad5)" opacity="0.6"/>
</svg>

